<?xml version="1.0" standalone="no"?>
<!DOCTYPE svg PUBLIC "-//W3C//DTD SVG 20010904//EN"
 "http://www.w3.org/TR/2001/REC-SVG-20010904/DTD/svg10.dtd">
<svg version="1.0" xmlns="http://www.w3.org/2000/svg"
 width="1068.000000pt" height="1068.000000pt" viewBox="0 0 1068.000000 1068.000000"
 preserveAspectRatio="xMidYMid meet">
<metadata>
Created by potrace 1.11, written by Peter Selinger 2001-2013
</metadata>
<g transform="translate(0.000000,1068.000000) scale(0.100000,-0.100000)"
fill="#000000" stroke="none">
<path d="M3944 10669 c-37 -5 -78 -22 -145 -62 -52 -30 -110 -63 -129 -74 -30
-17 -142 -82 -260 -151 -43 -24 -705 -406 -884 -509 -190 -109 -635 -368 -676
-392 -19 -11 -41 -24 -49 -28 -8 -3 -64 -35 -125 -71 -61 -36 -131 -76 -156
-90 -25 -13 -57 -36 -72 -49 -14 -14 -89 -134 -166 -267 -251 -433 -434 -750
-454 -786 -11 -19 -59 -102 -107 -185 -48 -82 -125 -215 -171 -295 -46 -80
-103 -178 -127 -218 -23 -40 -43 -75 -43 -78 0 -2 -11 -23 -26 -45 -14 -22
-34 -56 -44 -74 -10 -19 -79 -139 -153 -267 -74 -128 -138 -244 -142 -257 -4
-14 -8 -660 -7 -1437 l0 -1412 25 -53 c14 -30 34 -67 44 -84 51 -83 103 -174
103 -179 0 -3 17 -33 39 -68 21 -35 116 -198 211 -363 95 -165 206 -357 246
-427 41 -70 82 -142 93 -160 10 -18 51 -89 91 -158 40 -69 86 -150 103 -180
16 -30 33 -59 37 -65 4 -5 17 -26 28 -45 11 -19 44 -78 74 -130 31 -52 90
-156 133 -230 134 -233 183 -314 202 -336 10 -12 56 -44 103 -71 82 -49 460
-266 529 -305 19 -11 102 -59 185 -107 83 -49 387 -224 676 -391 289 -167 610
-352 715 -413 104 -60 208 -119 230 -131 l40 -21 1410 -1 c1121 0 1418 2 1450
12 22 7 188 99 369 204 181 104 331 190 334 190 3 0 13 6 21 14 9 8 39 26 66
41 28 14 66 36 85 47 19 11 136 78 260 149 124 71 232 133 240 139 14 8 238
138 510 295 102 58 370 214 533 309 18 10 40 26 50 37 14 15 103 162 177 294
9 16 93 161 185 320 92 160 176 306 187 325 10 19 23 42 28 50 16 25 104 177
158 272 11 18 53 92 94 163 42 72 85 146 96 165 11 19 43 76 72 125 29 50 62
108 75 130 12 22 45 80 74 128 28 49 51 90 51 92 0 2 22 39 48 82 27 43 80
134 118 203 l69 125 0 1395 c1 767 -3 1415 -7 1440 -5 24 -26 74 -47 110 -21
36 -50 85 -63 110 -14 25 -67 117 -118 205 -51 88 -101 174 -110 190 -20 34
-164 285 -190 330 -10 17 -83 143 -162 280 -80 138 -180 311 -223 385 -43 74
-120 207 -171 296 -50 88 -133 232 -184 320 -51 87 -101 175 -112 194 -33 58
-67 87 -177 150 -58 34 -113 65 -121 70 -21 12 -188 109 -225 130 -17 9 -87
50 -155 90 -69 40 -145 84 -170 98 -25 14 -76 44 -115 67 -38 22 -77 44 -85
48 -8 4 -31 17 -50 28 -19 12 -78 46 -130 76 -52 29 -102 58 -110 63 -56 33
-289 168 -540 313 -162 93 -367 211 -455 262 -88 51 -176 96 -195 100 -42 9
-2744 13 -2816 4z m2756 -440 c25 -14 223 -128 440 -254 487 -281 704 -407
750 -432 19 -11 58 -34 86 -50 27 -17 70 -41 95 -55 24 -14 116 -67 204 -118
88 -51 169 -98 180 -104 11 -6 125 -72 253 -146 l233 -135 45 -80 c26 -44 55
-95 65 -113 11 -18 37 -63 58 -100 21 -37 80 -139 131 -227 51 -88 101 -175
111 -193 11 -18 54 -93 96 -165 87 -152 517 -897 543 -942 10 -16 73 -124 141
-240 l123 -210 2 -1320 2 -1320 -133 -230 c-242 -420 -471 -817 -600 -1040
-70 -121 -139 -240 -152 -265 -14 -25 -38 -65 -53 -90 -15 -25 -74 -126 -130
-225 -57 -99 -136 -236 -175 -305 l-72 -125 -84 -51 c-46 -28 -109 -64 -139
-81 -30 -17 -122 -70 -205 -118 -82 -48 -163 -95 -180 -105 -16 -9 -106 -61
-200 -115 -93 -54 -228 -132 -300 -173 -71 -41 -186 -107 -255 -147 -69 -40
-199 -115 -290 -167 -91 -53 -270 -156 -399 -231 l-233 -134 -1317 -1 -1316 0
-200 115 c-110 64 -218 126 -240 138 -22 13 -80 46 -130 75 -49 29 -106 61
-125 72 -19 11 -60 35 -90 53 -30 18 -75 44 -100 57 -25 14 -187 108 -360 208
-173 101 -335 194 -360 208 -25 14 -112 64 -195 112 -82 48 -169 98 -191 111
-311 177 -294 164 -351 269 -30 56 -264 461 -399 691 -41 70 -74 132 -74 138
0 6 -4 11 -10 11 -5 0 -10 4 -10 9 0 5 -29 58 -64 117 -65 113 -424 732 -459
794 -10 19 -62 109 -115 200 -53 91 -103 181 -112 200 -15 32 -16 155 -15
1345 1 1424 -3 1306 52 1401 10 17 65 113 123 213 58 100 113 196 123 213 120
206 687 1190 718 1244 9 17 36 62 58 99 23 37 41 68 41 69 0 1 45 80 99 175
72 125 108 179 131 192 17 11 90 54 163 96 270 156 703 406 737 426 70 39 508
292 610 352 58 34 112 64 120 68 8 4 22 11 30 17 15 10 323 189 410 238 25 14
76 44 114 66 l69 41 1316 0 1316 0 45 -26z"/>
<path d="M5689 9505 c-2 -1 -26 -6 -54 -9 -63 -8 -190 -49 -264 -84 -129 -62
-285 -189 -377 -307 -21 -27 -42 -52 -45 -55 -3 -3 -26 -37 -52 -76 -68 -106
-146 -265 -232 -479 -42 -104 -80 -193 -84 -197 -3 -4 -137 -8 -296 -9 -322
-1 -379 -8 -484 -60 -81 -40 -145 -104 -179 -177 -22 -49 -26 -71 -26 -152 0
-111 23 -173 81 -217 71 -54 115 -62 382 -63 135 0 246 -2 248 -4 3 -2 -16
-52 -47 -121 -5 -11 -30 -72 -55 -135 -26 -63 -53 -129 -61 -147 -8 -17 -14
-34 -14 -38 0 -3 -9 -25 -19 -48 -11 -23 -42 -98 -69 -167 -45 -111 -253 -623
-301 -740 -10 -25 -27 -65 -37 -90 -10 -25 -25 -63 -35 -85 -9 -22 -54 -132
-100 -245 -45 -113 -85 -208 -88 -212 -3 -4 -285 -9 -626 -11 -341 -2 -635 -7
-653 -10 -18 -3 -52 -9 -75 -12 -188 -27 -382 -98 -518 -192 -195 -133 -347
-355 -408 -598 -26 -104 -31 -149 -32 -270 0 -114 5 -157 37 -300 17 -79 89
-218 161 -313 128 -167 343 -316 533 -368 26 -7 134 -33 165 -39 51 -11 366
-14 433 -5 59 9 79 13 146 25 127 25 358 123 492 210 145 95 336 270 437 402
101 132 249 406 373 690 l49 113 1085 1 c597 0 1096 2 1110 5 177 28 301 108
358 232 22 48 26 71 27 152 0 105 -13 142 -67 193 -40 37 -76 54 -150 72 -53
12 -219 15 -1072 15 -555 0 -1011 2 -1014 4 -2 2 103 264 233 583 131 318 262
639 292 713 47 116 83 204 138 335 7 17 45 111 85 210 40 99 76 183 79 186 3
4 125 9 271 12 146 3 279 8 295 11 17 4 67 13 113 22 492 90 862 428 923 845
17 115 7 314 -21 409 -37 129 -117 260 -215 353 -177 169 -378 245 -645 246
-70 0 -129 -2 -131 -4z m217 -654 c46 -24 68 -52 83 -107 44 -158 -37 -306
-214 -390 -88 -42 -183 -62 -307 -63 l-98 -2 19 48 c68 171 84 210 112 266 98
194 195 279 310 272 31 -2 73 -12 95 -24z m-2706 -3948 c0 -17 -54 -125 -106
-213 -207 -349 -477 -541 -750 -534 -107 3 -132 8 -193 38 -153 78 -234 218
-217 370 13 110 57 190 135 248 48 35 155 73 232 83 30 4 55 8 57 10 5 5 842
3 842 -2z"/>
<path d="M7289 6246 c-2 -3 -22 -7 -44 -10 -189 -24 -327 -147 -354 -314 -24
-155 31 -260 165 -313 54 -21 78 -23 284 -27 124 -2 226 -5 228 -6 1 -2 -37
-97 -84 -212 -47 -115 -97 -238 -110 -274 -14 -36 -32 -78 -39 -95 -7 -16 -48
-115 -90 -220 -43 -104 -102 -251 -132 -325 -101 -246 -181 -444 -213 -525
-18 -44 -38 -93 -45 -110 -7 -16 -56 -136 -108 -265 -160 -396 -183 -450 -247
-594 -223 -505 -421 -801 -620 -929 -141 -91 -217 -115 -393 -122 -276 -12
-496 157 -573 440 -20 71 -28 325 -13 400 5 28 11 61 14 74 19 107 108 300
193 420 68 97 225 249 322 313 187 124 447 224 680 262 19 3 44 7 55 10 11 2
49 7 85 11 36 4 72 8 80 10 8 1 47 6 85 10 233 23 345 82 410 212 25 50 29 69
28 143 0 122 -35 188 -138 266 -85 64 -189 91 -358 93 -585 8 -1297 -292
-1698 -716 -80 -85 -219 -256 -219 -271 0 -6 -4 -12 -8 -14 -14 -5 -80 -114
-131 -216 -77 -154 -123 -286 -167 -487 -29 -128 -40 -493 -19 -620 25 -152
91 -346 155 -456 120 -204 301 -378 495 -476 211 -107 394 -144 680 -138 155
3 202 6 260 20 6 1 28 5 50 9 300 57 628 255 867 524 255 287 415 616 975
2007 35 88 70 174 77 190 7 17 49 119 92 227 l79 198 265 1 c146 1 283 2 305
4 52 3 156 15 175 20 8 2 31 6 50 9 195 30 387 122 531 254 228 211 345 499
334 822 -4 112 -6 129 -26 217 -50 226 -197 392 -424 481 -216 84 -283 90
-1086 91 -371 1 -677 -1 -680 -3z m1381 -689 c42 -19 85 -61 100 -102 35 -89
-1 -247 -74 -319 -83 -84 -186 -112 -425 -115 -130 -2 -153 0 -148 12 22 57
211 516 219 531 9 17 21 18 151 13 96 -3 153 -10 177 -20z"/>
</g>
</svg>
